<!DOCTYPE svg PUBLIC "-//W3C//DTD SVG 1.1//EN" "http://www.w3.org/Graphics/SVG/1.1/DTD/svg11.dtd">
<!-- Uploaded to: SVG Repo, www.svgrepo.com, Transformed by: SVG Repo Mixer Tools -->
<svg version="1.1" id="Icons" xmlns="http://www.w3.org/2000/svg" xmlns:xlink="http://www.w3.org/1999/xlink" viewBox="0 0 32 32" xml:space="preserve" width="800px" height="800px" fill="#ffffff">

<g id="SVGRepo_bgCarrier" stroke-width="0"/>

<g id="SVGRepo_tracerCarrier" stroke-linecap="round" stroke-linejoin="round"/>

<g id="SVGRepo_iconCarrier"> <style type="text/css"> .st0{fill:none;stroke:#ffffff;stroke-width:2;stroke-linecap:round;stroke-linejoin:round;stroke-miterlimit:10;} </style> <g> <path d="M29,3H3C2.4,3,2,3.4,2,4v19c0,0.6,0.4,1,1,1h26c0.6,0,1-0.4,1-1V4C30,3.4,29.6,3,29,3z M18,21h-4c-0.6,0-1-0.4-1-1 s0.4-1,1-1h4c0.6,0,1,0.4,1,1S18.6,21,18,21z"/> <path d="M20.7,26.3C20.5,26.1,20.3,26,20,26h-8c-0.3,0-0.5,0.1-0.7,0.3l-2,2C9,28.6,8.9,29,9.1,29.4C9.2,29.8,9.6,30,10,30h12 c0.4,0,0.8-0.2,0.9-0.6c0.2-0.4,0.1-0.8-0.2-1.1L20.7,26.3z"/> </g> </g>

</svg>