<?xml version="1.0" encoding="UTF-8" standalone="no"?>
<!-- Uploaded to: SVG Repo, www.svgrepo.com, Generator: SVG Repo Mixer Tools -->

<svg
   fill="#000000"
   width="800px"
   height="800px"
   viewBox="0 0 24 24"
   version="1.1"
   id="svg363"
   sodipodi:docname="file.svg"
   inkscape:version="1.2.2 (732a01da63, 2022-12-09, custom)"
   xmlns:inkscape="http://www.inkscape.org/namespaces/inkscape"
   xmlns:sodipodi="http://sodipodi.sourceforge.net/DTD/sodipodi-0.dtd"
   xmlns="http://www.w3.org/2000/svg"
   xmlns:svg="http://www.w3.org/2000/svg">
  <defs
     id="defs367" />
  <sodipodi:namedview
     id="namedview365"
     pagecolor="#505050"
     bordercolor="#eeeeee"
     borderopacity="1"
     inkscape:showpageshadow="0"
     inkscape:pageopacity="0"
     inkscape:pagecheckerboard="0"
     inkscape:deskcolor="#505050"
     showgrid="false"
     inkscape:zoom="0.985"
     inkscape:cx="236.54822"
     inkscape:cy="400.50761"
     inkscape:window-width="1846"
     inkscape:window-height="1016"
     inkscape:window-x="0"
     inkscape:window-y="0"
     inkscape:window-maximized="1"
     inkscape:current-layer="svg363" />
  <path
     fill-rule="evenodd"
     clip-rule="evenodd"
     d="m 12,0 v 6 0.065292 c -1.2e-4,0.508884 -2.4e-4,1.003428 0.0546,1.411332 0.0618,0.45984 0.21252,0.984576 0.64836,1.420428 0.43584,0.435864 0.9606,0.586488 1.42044,0.648312 C 14.53128,9.60024 15.0258,9.60012 15.53472,9.6 v 0 0 0 H 15.6 h 6 v 7.2 c 0,3.39408 0,5.09112 -1.05444,6.14556 C 19.49112,24 17.79408,24 14.4,24 H 9.6 C 6.205884,24 4.508832,24 3.454416,22.94556 2.4,21.89112 2.4,20.19408 2.4,16.8 V 7.2 C 2.4,3.805884 2.4,2.108832 3.454416,1.054416 4.508832,0 6.205884,0 9.6,0 Z m 2.4,0.005544 V 6 c 0,0.599604 0.0025,0.928596 0.03324,1.156824 l 0.0012,0.00875 0.0088,0.0012 C 14.67144,7.197456 15.00036,7.2 15.6,7.2 h 5.99448 C 21.58224,6.706032 21.543,6.37914 21.41736,6.075672 21.2346,5.634624 20.8878,5.287788 20.19408,4.594116 L 17.00592,1.405884 C 16.3122,0.712212 15.9654,0.365376 15.52428,0.182688 15.2208,0.056988 14.89392,0.017772 14.4,0.005544 Z M 7.2,13.2 C 7.2,12.53724 7.737264,12 8.4,12 h 7.2 c 0.66276,0 1.2,0.53724 1.2,1.2 0,0.66276 -0.53724,1.2 -1.2,1.2 H 8.4 c -0.662736,0 -1.2,-0.53724 -1.2,-1.2 z m 1.2,3.6 c -0.662736,0 -1.2,0.53724 -1.2,1.2 0,0.66276 0.537264,1.2 1.2,1.2 h 4.8 c 0.66276,0 1.2,-0.53724 1.2,-1.2 0,-0.66276 -0.53724,-1.2 -1.2,-1.2 z"
     id="path361"
     style="stroke-width:1.2" />
</svg>
