<svg id="svg" xmlns="http://www.w3.org/2000/svg" xmlns:xlink="http://www.w3.org/1999/xlink" fill="#FFFFFF" width="800" height="800" viewBox="0, 0, 400,400"><g id="svgg"><path id="path0" d="M3.731 17.599 C 0.959 19.136,0.000 21.037,0.000 25.000 C -0.000 32.972,1.755 33.594,24.257 33.594 C 38.713 33.594,42.837 33.829,44.811 34.765 C 50.011 37.233,49.569 22.352,50.008 209.766 C 50.227 303.438,50.491 380.171,50.594 380.285 C 53.335 383.309,60.153 384.447,63.112 382.374 C 67.102 379.579,67.187 378.838,67.187 346.914 L 67.188 317.188 175.391 317.188 L 283.594 317.188 283.594 191.797 L 283.594 66.406 175.461 66.406 L 67.329 66.406 67.062 50.977 C 66.709 30.571,63.881 24.277,52.528 18.636 C 47.739 16.256,7.690 15.405,3.731 17.599 M17.969 67.137 C 4.433 71.269,0.002 79.358,-0.004 99.944 C -0.011 124.149,7.564 133.594,26.982 133.594 L 33.594 133.594 33.594 100.000 L 33.594 66.406 26.758 66.473 C 22.998 66.510,19.043 66.809,17.969 67.137 M300.000 191.797 L 300.000 317.188 330.716 317.188 C 365.059 317.187,367.803 316.909,377.013 312.489 C 391.731 305.426,400.000 291.619,400.000 274.106 L 400.000 266.509 376.367 266.262 C 348.981 265.976,347.795 265.712,340.801 258.316 C 330.376 247.294,330.810 217.088,341.531 207.402 C 348.867 200.774,350.562 200.424,376.758 200.126 L 400.000 199.861 400.000 152.097 L 400.000 104.332 381.037 85.369 L 362.074 66.406 331.037 66.406 L 300.000 66.406 300.000 191.797 M189.463 118.661 C 248.364 130.818,269.568 202.581,226.777 244.952 C 188.245 283.107,122.503 267.334,104.540 215.625 C 85.953 162.120,134.035 107.221,189.463 118.661 M346.352 118.786 C 349.407 121.189,349.992 124.763,349.987 141.016 C 349.981 161.643,349.134 164.662,342.969 166.016 C 335.054 167.754,333.465 163.360,333.750 140.523 L 333.984 121.744 336.536 119.466 C 339.618 116.713,343.386 116.452,346.352 118.786 M164.453 133.967 C 117.063 142.747,99.832 201.531,134.993 234.468 C 161.135 258.956,204.058 254.044,223.754 224.312 C 252.327 181.179,215.170 124.570,164.453 133.967 M180.529 153.065 L 182.813 155.349 182.813 166.346 C 182.813 172.395,183.095 177.344,183.441 177.344 C 183.786 177.344,188.074 175.059,192.969 172.266 C 203.882 166.038,208.225 165.843,210.785 171.463 C 213.282 176.942,211.230 179.873,200.689 185.885 C 196.034 188.540,192.039 191.014,191.810 191.385 C 191.581 191.755,195.453 194.415,200.413 197.296 C 212.187 204.132,214.340 207.979,209.455 213.446 C 205.869 217.460,203.017 217.003,192.188 210.683 L 183.203 205.440 182.796 216.587 C 182.297 230.239,181.060 232.813,175.000 232.813 C 168.940 232.813,167.703 230.239,167.204 216.587 L 166.797 205.440 157.813 210.683 C 146.983 217.003,144.131 217.460,140.545 213.446 C 135.660 207.980,137.813 204.132,149.581 197.299 C 154.538 194.420,158.586 191.829,158.576 191.540 C 158.566 191.252,154.580 188.785,149.717 186.059 C 138.623 179.840,136.506 176.794,139.395 171.207 C 142.190 165.801,146.114 166.036,157.031 172.266 C 161.926 175.059,166.214 177.344,166.559 177.344 C 166.905 177.344,167.188 172.395,167.188 166.346 L 167.188 155.349 169.471 153.065 C 171.262 151.274,172.455 150.781,175.000 150.781 C 177.545 150.781,178.738 151.274,180.529 153.065 M17.969 167.137 C 10.830 169.316,3.433 176.140,1.244 182.566 C -0.916 188.904,-0.576 296.702,1.619 301.540 C 6.331 311.927,15.158 317.188,27.876 317.188 L 33.594 317.188 33.594 241.797 L 33.594 166.406 26.758 166.473 C 22.998 166.510,19.043 166.809,17.969 167.137 M353.731 217.624 C 350.364 219.451,350.000 221.010,350.000 233.602 L 350.000 245.433 352.284 247.716 L 354.567 250.000 377.284 250.000 L 400.000 250.000 400.000 233.203 L 400.000 216.406 377.930 216.438 C 359.977 216.463,355.462 216.684,353.731 217.624 M290.341 332.617 L 216.229 332.820 216.565 340.824 C 217.075 352.995,221.461 360.193,231.129 364.726 L 235.547 366.797 291.797 366.797 L 348.047 366.797 352.454 364.632 C 362.009 359.940,366.470 352.413,367.030 340.039 C 367.369 332.543,367.298 332.043,365.923 332.223 C 365.114 332.328,331.103 332.505,290.341 332.617 M91.565 340.820 C 92.075 352.995,96.460 360.193,106.129 364.726 L 110.547 366.797 137.500 366.797 L 164.453 366.797 168.871 364.726 C 178.586 360.171,183.005 352.933,183.466 340.820 L 183.771 332.813 137.500 332.813 L 91.229 332.813 91.565 340.820 " stroke="none" fill-rule="evenodd"></path></g></svg>