<?xml version="1.0" encoding="utf-8"?>

<!DOCTYPE svg PUBLIC "-//W3C//DTD SVG 1.1//EN" "http://www.w3.org/Graphics/SVG/1.1/DTD/svg11.dtd">
<!-- Uploaded to: SVG Repo, www.svgrepo.com, Generator: SVG Repo Mixer Tools -->
<svg fill="#000000" height="800px" width="800px"  version="1.1" id="_x32_" xmlns="http://www.w3.org/2000/svg" xmlns:xlink="http://www.w3.org/1999/xlink" 
	 viewBox="0 0 512 512"  xml:space="preserve">
<g>
	<path class="st0" d="M256.005,172.086c-26.385,0-47.793,21.39-47.793,47.793c0,26.385,21.408,47.775,47.793,47.775
		s47.793-21.39,47.793-47.775C303.798,193.476,282.39,172.086,256.005,172.086z"/>
	<path class="st0" d="M466.765,12.692C458.862,4.807,448.17,0.01,436.208,0H75.792C63.83,0.01,53.14,4.807,45.236,12.692
		c-7.885,7.903-12.683,18.594-12.692,30.556v425.503c0.009,11.963,4.807,22.654,12.692,30.557
		C53.14,507.182,63.83,511.99,75.792,512h360.416c11.962-0.01,22.654-4.818,30.557-12.692c7.884-7.903,12.682-18.594,12.691-30.557
		V43.248C479.447,31.286,474.649,20.595,466.765,12.692z M151.373,432.752l85.168-120.373c6.06-9.55,18.743-12.421,28.32-6.314
		c9.54,6.051,12.392,18.743,6.332,28.293L198.587,462.7c-8.288,13.038-25.562,16.91-38.61,8.624
		C146.94,463.046,143.087,445.781,151.373,432.752z M289.787,345.404c11.991-19.557,6.089-45.277-13.299-57.577
		c-6.772-4.321-14.591-6.602-22.606-6.602c-14.3,0-27.432,7.099-35.26,19.033l-46.943,66.387
		c-50.796-29.246-85.065-83.952-85.065-146.766c0-93.567,75.843-169.41,169.391-169.41c93.557,0,169.401,75.844,169.401,169.41
		c0,90.434-70.933,164.107-160.178,168.933L289.787,345.404z M109.958,57.679c0,12.88-10.466,23.336-23.345,23.336
		c-12.898,0-23.355-10.457-23.355-23.336c0-12.897,10.457-23.363,23.355-23.363C99.492,34.316,109.958,44.782,109.958,57.679z
		 M86.614,430.984c12.879,0,23.345,10.457,23.345,23.355c0,12.888-10.466,23.345-23.345,23.345
		c-12.898,0-23.355-10.456-23.355-23.345C63.259,441.441,73.716,430.984,86.614,430.984z M402.051,454.339
		c0-12.898,10.456-23.355,23.335-23.355c12.898,0,23.364,10.457,23.364,23.355c0,12.888-10.466,23.345-23.364,23.345
		C412.508,477.684,402.051,467.228,402.051,454.339z M425.386,81.016c-12.879,0-23.335-10.457-23.335-23.336
		c0-12.897,10.456-23.363,23.335-23.363c12.898,0,23.364,10.466,23.364,23.363C448.751,70.559,438.284,81.016,425.386,81.016z"/>
</g>
</svg>