<?xml version="1.0" encoding="UTF-8" standalone="no"?>
<!-- Uploaded to: SVG Repo, www.svgrepo.com, Generator: SVG Repo Mixer Tools -->

<svg
   fill="#000000"
   width="800px"
   height="800px"
   viewBox="0 0 56 56"
   version="1.1"
   id="svg241"
   sodipodi:docname="box.svg"
   inkscape:version="1.2.2 (732a01da63, 2022-12-09, custom)"
   xmlns:inkscape="http://www.inkscape.org/namespaces/inkscape"
   xmlns:sodipodi="http://sodipodi.sourceforge.net/DTD/sodipodi-0.dtd"
   xmlns="http://www.w3.org/2000/svg"
   xmlns:svg="http://www.w3.org/2000/svg">
  <defs
     id="defs245" />
  <sodipodi:namedview
     id="namedview243"
     pagecolor="#505050"
     bordercolor="#eeeeee"
     borderopacity="1"
     inkscape:showpageshadow="0"
     inkscape:pageopacity="0"
     inkscape:pagecheckerboard="0"
     inkscape:deskcolor="#505050"
     showgrid="false"
     inkscape:zoom="0.985"
     inkscape:cx="236.54822"
     inkscape:cy="400.50761"
     inkscape:window-width="1846"
     inkscape:window-height="1016"
     inkscape:window-x="0"
     inkscape:window-y="0"
     inkscape:window-maximized="1"
     inkscape:current-layer="svg241" />
  <path
     d="m 42.566259,18.246337 9.67658,-5.507325 c -0.3864,-0.386071 -0.849663,-0.694839 -1.415702,-1.003718 L 32.683906,1.3897882 C 31.088345,0.48895686 29.544172,0 28,0 26.455937,0 24.911765,0.48895686 23.316204,1.3897882 L 18.091953,4.3493333 Z M 28,26.507325 38.989067,20.279467 14.617757,6.3566588 5.1728626,11.735294 c -0.566149,0.308879 -1.0294117,0.617647 -1.4154823,1.003718 z M 29.750055,56 c 0.180188,-0.05139 0.334572,-0.12869 0.514761,-0.231576 L 50.415482,44.29051 c 2.393396,-1.363985 3.705773,-2.753773 3.705773,-6.485349 V 17.75738 c 0,-0.772031 -0.07697,-1.389678 -0.205553,-1.955937 L 29.750055,29.595671 Z m -3.5,0 V 29.595671 L 2.0846273,15.801443 C 1.9559372,16.367702 1.878745,16.985349 1.878745,17.75738 v 20.047781 c 0,3.731576 1.3124863,5.121364 3.7058824,6.485349 L 25.735294,55.768424 C 25.915482,55.87131 26.069867,55.948612 26.250055,56 Z"
     id="path239"
     style="stroke-width:1.09804" />
</svg>
