<?xml version="1.0" encoding="UTF-8" standalone="no"?>
<!-- Uploaded to: SVG Repo, www.svgrepo.com, Generator: SVG Repo Mixer Tools -->

<svg
   fill="#000000"
   width="800px"
   height="800px"
   viewBox="0 -64 640 640"
   version="1.1"
   id="svg466"
   sodipodi:docname="ram.svg"
   inkscape:version="1.2.2 (732a01da63, 2022-12-09, custom)"
   xmlns:inkscape="http://www.inkscape.org/namespaces/inkscape"
   xmlns:sodipodi="http://sodipodi.sourceforge.net/DTD/sodipodi-0.dtd"
   xmlns="http://www.w3.org/2000/svg"
   xmlns:svg="http://www.w3.org/2000/svg">
  <defs
     id="defs470" />
  <sodipodi:namedview
     id="namedview468"
     pagecolor="#505050"
     bordercolor="#eeeeee"
     borderopacity="1"
     inkscape:showpageshadow="0"
     inkscape:pageopacity="0"
     inkscape:pagecheckerboard="0"
     inkscape:deskcolor="#505050"
     showgrid="false"
     inkscape:zoom="0.985"
     inkscape:cx="236.54822"
     inkscape:cy="400.50761"
     inkscape:window-width="1846"
     inkscape:window-height="1016"
     inkscape:window-x="0"
     inkscape:window-y="0"
     inkscape:window-maximized="1"
     inkscape:current-layer="svg466" />
  <path
     d="M 640,98.860706 V 54.958198 C 640,32.755644 625.67,14.749839 607.99999,14.749839 H 32 c -17.670001,0 -32,18.005805 -32,40.208359 v 43.902508 c 18.6,8.305534 32,30.394994 32,56.618384 0,26.2234 -13.4,48.31286 -32,56.61841 V 336.41671 H 640 V 212.0975 c -18.59999,-8.30555 -32.00001,-30.39501 -32.00001,-56.61841 0,-26.22339 13.40002,-48.31285 32.00001,-56.618384 z M 223.99999,256 h -64 V 95.166557 h 64 z m 128,0 h -64 V 95.166557 h 64 z m 128,0 H 416 V 95.166557 h 63.99999 z M 0,497.25016 h 64 v -33.51115 c 0,-11.10757 7.159999,-20.10419 15.999999,-20.10419 8.840002,0 16.000002,8.99662 16.000002,20.10419 v 33.51115 H 223.99999 v -33.51115 c 0,-11.10757 7.16001,-20.10419 16.00001,-20.10419 8.84,0 16,8.99662 16,20.10419 v 33.51115 h 128 v -33.51115 c 0,-11.10757 7.16001,-20.10419 16.00001,-20.10419 8.84,0 15.99999,8.99662 15.99999,20.10419 v 33.51115 h 127.99999 v -33.51115 c 0,-11.10757 7.16001,-20.10419 16.00001,-20.10419 8.84,0 16,8.99662 16,20.10419 v 33.51115 h 64 V 376.62508 H 0 Z"
     id="path464"
     style="stroke-width:1.12094" />
</svg>
